<?xml version="1.0" encoding="utf-8"?>
<!-- Generator: Adobe Illustrator 16.0.0, SVG Export Plug-In . SVG Version: 6.00 Build 0)  -->
<!DOCTYPE svg PUBLIC "-//W3C//DTD SVG 1.1//EN" "http://www.w3.org/Graphics/SVG/1.1/DTD/svg11.dtd">
<svg version="1.1" id="Layer_1" xmlns="http://www.w3.org/2000/svg" xmlns:xlink="http://www.w3.org/1999/xlink" x="0px" y="0px"
	 width="287.001px" height="287.002px" viewBox="154 277.888 287.001 287.002" enable-background="new 154 277.888 287.001 287.002"
	 xml:space="preserve">
<g>
	<path fill="#77787B" d="M283.987,419.903c-7.838-14.055-18.65-28.38-36.218-28.38c-15.136,0-24.326,15.136-24.326,28.92
		c0,14.325,9.19,28.92,24.866,28.92C263.986,449.363,276.689,432.064,283.987,419.903 M372.099,422.337
		c0-16.219-11.082-31.896-28.107-31.896c-18.109,0-31.084,17.299-38.922,31.896c7.566,15.676,19.189,30.811,38.109,30.811
		C360.207,453.146,372.099,438.822,372.099,422.337 M389.667,423.146c0,27.299-15.406,50.813-44.867,50.813
		c-24.326,0-38.381-13.244-48.921-33.517c-11.081,16.217-24.596,29.732-45.678,29.732c-27.299,0-44.867-23.785-44.867-49.733
		c0-25.136,15.136-48.11,42.435-48.11c22.433,0,34.326,12.434,44.326,30.813c11.622-17.569,25.676-34.326,48.651-34.326
		C370.748,368.819,389.667,394.766,389.667,423.146 M441.001,421.389c0-79.253-64.248-143.501-143.5-143.501
		C218.248,277.888,154,342.136,154,421.389S218.248,564.89,297.501,564.89C376.753,564.89,441.001,500.643,441.001,421.389"/>
</g>
</svg>
