<?xml version="1.0" encoding="utf-8"?>
<!-- Generator: Adobe Illustrator 16.0.0, SVG Export Plug-In . SVG Version: 6.00 Build 0)  -->
<!DOCTYPE svg PUBLIC "-//W3C//DTD SVG 1.1//EN" "http://www.w3.org/Graphics/SVG/1.1/DTD/svg11.dtd">
<svg version="1.1" id="Vrstva_1" xmlns="http://www.w3.org/2000/svg" xmlns:xlink="http://www.w3.org/1999/xlink" x="0px" y="0px"
	 width="419.487px" height="326.047px" viewBox="0.043 134.744 419.487 326.047"
	 enable-background="new 0.043 134.744 419.487 326.047" xml:space="preserve">
<path fill="#FFFFFF" d="M355.435,338.937V443.31c0,9.688-7.793,17.48-17.48,17.48h-84.488c-4.807,0-8.74-3.933-8.74-8.74v-81.575
	c0-4.808-3.934-8.74-8.74-8.74h-52.441c-4.807,0-8.74,3.933-8.74,8.74v81.575c0,4.808-3.933,8.74-8.74,8.74H81.575
	c-9.687,0-17.48-7.793-17.48-17.48V338.937c0-2.622,1.166-5.098,3.205-6.773l136.93-112.749c3.205-2.622,7.866-2.622,11.144,0
	l136.931,112.749C354.271,333.84,355.435,336.315,355.435,338.937z M416.326,294.581l-60.891-50.184V143.521
	c0-4.808-3.934-8.74-8.74-8.74h-40.787c-4.807,0-8.74,3.933-8.74,8.74v52.878l-65.188-53.68c-12.893-10.634-31.538-10.634-44.43,0
	L3.205,294.581c-3.714,3.06-4.224,8.595-1.165,12.31l18.573,22.579c3.059,3.714,8.595,4.224,12.309,1.165l171.308-141.082
	c3.205-2.622,7.866-2.622,11.144,0l171.308,141.082c3.715,3.059,9.25,2.549,12.311-1.165l18.572-22.579
	C420.623,303.103,420.041,297.64,416.326,294.581z"/>
</svg>
