<?xml version="1.0" encoding="utf-8"?>
<!-- Generator: Adobe Illustrator 16.0.0, SVG Export Plug-In . SVG Version: 6.00 Build 0)  -->
<!DOCTYPE svg PUBLIC "-//W3C//DTD SVG 1.1//EN" "http://www.w3.org/Graphics/SVG/1.1/DTD/svg11.dtd">
<svg version="1.1" id="Vrstva_1" xmlns="http://www.w3.org/2000/svg" xmlns:xlink="http://www.w3.org/1999/xlink" x="0px" y="0px"
	 width="419.764px" height="419.67px" viewBox="-0.07 87.712 419.764 419.67" enable-background="new -0.07 87.712 419.764 419.67"
	 xml:space="preserve">
<path fill="#FFFFFF" d="M209.859,189.948c-59.559,0-107.598,48.04-107.598,107.599s48.04,107.599,107.598,107.599
	s107.598-48.04,107.598-107.599S269.417,189.948,209.859,189.948z M209.859,367.5c-38.488,0-69.953-31.371-69.953-69.953
	s31.371-69.953,69.953-69.953s69.953,31.371,69.953,69.953S248.347,367.5,209.859,367.5L209.859,367.5z M346.955,185.547
	c0,13.953-11.236,25.098-25.096,25.098c-13.953,0-25.098-11.238-25.098-25.098S308,160.45,321.859,160.45
	S346.955,171.687,346.955,185.547z M418.22,211.018c-1.594-33.618-9.271-63.397-33.9-87.933
	c-24.535-24.535-54.314-32.214-87.934-33.899c-34.648-1.967-138.5-1.967-173.149,0c-33.525,1.592-63.304,9.271-87.933,33.806
	C10.676,147.527,3.09,177.306,1.405,210.925c-1.967,34.648-1.967,138.501,0,173.15c1.592,33.618,9.271,63.397,33.899,87.933
	c24.629,24.535,54.314,32.214,87.933,33.899c34.649,1.967,138.501,1.967,173.149,0c33.619-1.592,63.398-9.271,87.934-33.899
	c24.535-24.535,32.213-54.314,33.9-87.933C420.185,349.426,420.185,245.667,418.22,211.018z M373.457,421.252
	c-7.305,18.354-21.445,32.495-39.893,39.894c-27.625,10.956-93.177,8.428-123.705,8.428s-96.174,2.435-123.706-8.428
	c-18.354-7.305-32.495-21.445-39.893-39.894c-10.957-27.625-8.428-93.177-8.428-123.705s-2.435-96.174,8.428-123.705
	c7.304-18.354,21.445-32.495,39.893-39.894c27.625-10.956,93.177-8.428,123.706-8.428s96.174-2.435,123.705,8.428
	c18.355,7.305,32.494,21.445,39.893,39.894c10.957,27.625,8.428,93.177,8.428,123.705S384.414,393.72,373.457,421.252z"/>
</svg>
