<?xml version="1.0" encoding="utf-8"?>
<!-- Generator: Adobe Illustrator 16.0.0, SVG Export Plug-In . SVG Version: 6.00 Build 0)  -->
<!DOCTYPE svg PUBLIC "-//W3C//DTD SVG 1.1//EN" "http://www.w3.org/Graphics/SVG/1.1/DTD/svg11.dtd">
<svg version="1.1" id="Vrstva_1" xmlns="http://www.w3.org/2000/svg" xmlns:xlink="http://www.w3.org/1999/xlink" x="0px" y="0px"
	 width="684.533px" height="122.695px" viewBox="79.09 236.881 684.533 122.695"
	 enable-background="new 79.09 236.881 684.533 122.695" xml:space="preserve">
<g>
	<path fill="#003366" d="M220.614,299.919c-0.383,18.382-15.394,33.164-33.866,33.164c-3.959,0-7.756-0.686-11.288-1.934
		l-12.091,20.941c7.366,3.331,14.927,4.906,23.373,4.906c31.629,0,57.404-25.54,57.79-57.08L220.614,299.919L220.614,299.919z"/>
	<path fill="#003366" d="M186.748,265.315c18.477,0,33.489,14.792,33.866,33.18h23.917c-0.111-10.269-2.578-19.242-7.74-28.186
		c-10.293-17.832-29.493-28.905-50.104-28.905c-8.019,0-15.966,1.695-23.302,4.938l12.07,20.907
		C178.988,266.001,182.788,265.315,186.748,265.315z"/>
	<path fill="#003366" d="M152.864,299.201c0-13.788,8.24-25.646,20.061-30.937l-15.923-27.579
		c-10.355,6.206-17.748,13.76-23.859,24.34c-9.129,15.813-11.554,34.233-6.828,51.872c4.609,17.202,15.483,31.648,30.688,40.822
		l15.926-27.584C161.106,324.848,152.864,312.992,152.864,299.201z"/>
</g>
<g>
	<path fill="#003366" d="M347.338,299.919c-0.383,18.382-15.393,33.164-33.866,33.164c-3.959,0-7.756-0.686-11.288-1.934
		l-12.091,20.941c7.365,3.331,14.926,4.906,23.372,4.906c31.63,0,57.404-25.54,57.791-57.08L347.338,299.919L347.338,299.919z"/>
	<path fill="#003366" d="M313.472,265.315c18.479,0,33.489,14.792,33.866,33.18h23.918c-0.112-10.269-2.578-19.242-7.74-28.186
		c-10.293-17.832-29.492-28.905-50.104-28.905c-8.021,0-15.966,1.695-23.302,4.938l12.07,20.907
		C305.713,266.001,309.512,265.315,313.472,265.315z"/>
	<path fill="#003366" d="M279.588,299.201c0-13.788,8.24-25.646,20.063-30.937l-15.922-27.579
		c-10.356,6.206-17.748,13.76-23.86,24.34c-9.128,15.813-11.554,34.233-6.828,51.872c4.61,17.202,15.483,31.648,30.688,40.822
		l15.927-27.584C287.83,324.848,279.588,312.992,279.588,299.201z"/>
</g>
<polygon fill="#003366" points="79.09,251.768 79.09,359.576 108.772,359.576 108.772,236.881 "/>
<g>
	<path fill="#003366" d="M415.119,267.557c-1.481-2.259-2.745-3.012-5.01-3.012c-2.701,0-4.792,1.841-4.792,4.309
		c0,1.213,0.608,2.216,1.83,3.012c1.046,0.669,1.046,0.669,5.01,2.342c4.705,1.965,6.578,4.183,6.578,7.694
		c0,4.811-4.01,8.574-9.235,8.574c-4.574,0-7.841-2.636-8.931-7.193l3.137-0.837c0.349,1.423,0.61,2.092,1.176,2.845
		c1.045,1.422,2.832,2.258,4.749,2.258c3.27,0,5.838-2.426,5.838-5.479c0-1.715-0.784-3.011-2.396-3.973
		c-1.089-0.669-1.089-0.669-5.143-2.427c-4.182-1.799-5.881-3.806-5.881-6.858c0-4.1,3.485-7.193,8.146-7.193
		c3.268,0,5.75,1.464,7.493,4.351L415.119,267.557z"/>
	<path fill="#003366" d="M446.49,289.975h-3.271v-25.012h-7.014v-2.886h17.34v2.886h-7.059v25.012H446.49z"/>
	<path fill="#003366" d="M499.554,276.047c0,7.989-6.838,14.431-15.246,14.431c-4.139,0-8.362-1.84-11.237-4.895
		c-2.439-2.636-3.746-5.938-3.746-9.703c0-7.695,6.969-14.262,15.16-14.262C492.759,261.618,499.554,268.143,499.554,276.047z
		 M472.589,275.88c0,3.431,1.264,6.272,3.703,8.49c2.221,2.008,5.184,3.179,8.059,3.179c6.621,0,11.938-5.104,11.938-11.502
		c0-6.356-5.271-11.501-11.851-11.501C477.947,264.546,472.589,269.69,472.589,275.88z"/>
	<path fill="#003366" d="M523.476,287.089h7.976v2.887h-11.24v-27.896h3.269v25.011L523.476,287.089L523.476,287.089z"/>
	<path fill="#003366" d="M553.845,264.964v8.323h11.457v2.886h-11.457v10.917h11.765v2.887H550.58V262.08h15.029v2.886
		L553.845,264.964L553.845,264.964z"/>
	<path fill="#003366" d="M594.146,289.975h-3.27v-25.012h-7.014v-2.886h17.34v2.886h-7.06v25.012H594.146z"/>
	<path fill="#003366" d="M621.681,259.861l-1.873-1.213l4.185-5.563l2.918,1.882L621.681,259.861z M623.554,289.975h-3.266v-27.896
		h3.266V289.975z"/>
	<path fill="#003366" d="M417.689,317.896c-1.699-1.297-3.226-1.882-4.969-1.882c-1.829,0-3.224,1.045-3.224,2.426
		c0,0.502,0.262,1.045,0.697,1.38c0.826,0.669,1.133,0.796,4.528,1.758c5.056,1.422,7.146,3.681,7.146,7.82
		c0,3.18-1.002,5.604-2.962,7.234c-2.091,1.716-5.056,2.636-8.408,2.636c-3.441,0-6.97-1.087-10.063-3.138l3.226-5.854
		c2.353,1.967,4.443,2.845,6.666,2.845c2.222,0,3.659-1.087,3.659-2.719c0-1.506-1.002-2.217-4.53-3.221
		c-3.224-0.92-4.487-1.423-5.533-2.26c-1.522-1.213-2.309-3.053-2.309-5.521c0-5.604,4.008-9.411,9.889-9.411
		c3.05,0,6.273,0.796,9.192,2.26L417.689,317.896z"/>
	<path fill="#003366" d="M453.023,338.557h-7.537v-21.748h-6.144v-6.147h19.951v6.147h-6.271V338.557z"/>
	<path fill="#003366" d="M483.611,333.705l-2.004,4.853h-7.976l11.152-27.896h8.231l10.937,27.896h-8.06l-1.872-4.853H483.611z
		 M488.882,319.275l-3.182,8.909h6.272L488.882,319.275z"/>
	<path fill="#003366" d="M531.97,338.557h-7.537v-21.748h-6.143v-6.147h19.953v6.147h-6.273V338.557L531.97,338.557z"/>
	<path fill="#003366" d="M564.517,338.557h-7.534V310.66h7.534V338.557z"/>
	<path fill="#003366" d="M601.898,317.896c-1.699-1.297-3.226-1.882-4.968-1.882c-1.828,0-3.225,1.045-3.225,2.426
		c0,0.502,0.262,1.045,0.697,1.38c0.828,0.669,1.133,0.796,4.531,1.758c5.053,1.422,7.145,3.681,7.145,7.82
		c0,3.18-1.002,5.604-2.963,7.234c-2.09,1.716-5.053,2.636-8.408,2.636c-3.439,0-6.969-1.087-10.063-3.138l3.225-5.854
		c2.354,1.967,4.443,2.845,6.666,2.845c2.221,0,3.658-1.087,3.658-2.719c0-1.506-1.002-2.217-4.529-3.221
		c-3.225-0.92-4.488-1.423-5.533-2.26c-1.522-1.213-2.309-3.053-2.309-5.521c0-5.604,4.008-9.411,9.889-9.411
		c3.049,0,6.273,0.796,9.191,2.26L601.898,317.896z"/>
	<path fill="#003366" d="M637.234,338.557h-7.537v-21.748h-6.146v-6.147h19.953v6.147h-6.271V338.557L637.234,338.557z"/>
	<path fill="#003366" d="M669.779,338.557h-7.537V310.66h7.537V338.557z"/>
	<path fill="#003366" d="M707.945,310.66h9.319l-11.5,13.216l12.591,14.682h-9.804l-9.801-12.087v12.087h-7.537V310.66h7.537v11.501
		L707.945,310.66z"/>
	<path fill="#003366" d="M734.697,310.66h9.018l5.49,7.61l5.27-7.61h9.148l-10.891,14.513v13.385h-7.535v-13.385L734.697,310.66z"/>
</g>
</svg>
