<?xml version="1.0" encoding="utf-8"?>
<!-- Generator: Adobe Illustrator 16.0.0, SVG Export Plug-In . SVG Version: 6.00 Build 0)  -->
<!DOCTYPE svg PUBLIC "-//W3C//DTD SVG 1.1//EN" "http://www.w3.org/Graphics/SVG/1.1/DTD/svg11.dtd">
<svg version="1.1" id="Vrstva_1" xmlns="http://www.w3.org/2000/svg" xmlns:xlink="http://www.w3.org/1999/xlink" x="0px" y="0px"
	 width="322.747px" height="179.613px" viewBox="0 0 322.747 179.613" enable-background="new 0 0 322.747 179.613"
	 xml:space="preserve">
<g>
	<g>
		<path fill="#BD1B21" d="M155.632,69.322c-0.422,20.214-16.928,36.47-37.242,36.47c-4.354,0-8.53-0.754-12.413-2.125l-13.297,23.03
			c8.099,3.663,16.414,5.396,25.702,5.396c34.783,0,63.126-28.088,63.552-62.771H155.632z"/>
		<path fill="#FFFFFF" d="M118.391,31.27c20.317,0,36.826,16.267,37.242,36.486h26.303c-0.124-11.292-2.835-21.159-8.513-30.995
			c-11.319-19.609-32.434-31.787-55.1-31.787c-8.817,0-17.556,1.864-25.624,5.432l13.273,22.991
			C109.857,32.024,114.035,31.27,118.391,31.27z"/>
		<path fill="#0071BC" d="M81.127,68.534c0-15.163,9.063-28.202,22.062-34.021L85.679,4.185
			c-11.387,6.824-19.517,15.131-26.237,26.767c-10.039,17.39-12.707,37.647-7.509,57.042c5.068,18.918,17.026,34.805,33.748,44.893
			l17.513-30.334C90.192,96.736,81.127,83.699,81.127,68.534z"/>
	</g>
	<g>
		<path fill="#BD1B21" d="M296.444,69.322c-0.422,20.214-16.928,36.47-37.242,36.47c-4.354,0-8.529-0.754-12.414-2.125
			l-13.295,23.03c8.1,3.663,16.414,5.396,25.701,5.396c34.785,0,63.127-28.088,63.553-62.771H296.444z"/>
		<path fill="#FFFFFF" d="M259.202,31.27c20.318,0,36.828,16.267,37.242,36.486h26.303c-0.125-11.292-2.836-21.159-8.512-30.995
			c-11.322-19.609-32.434-31.787-55.098-31.787c-8.82,0-17.559,1.864-25.628,5.432l13.274,22.991
			C250.668,32.024,254.846,31.27,259.202,31.27z"/>
		<path fill="#0071BC" d="M221.941,68.534c0-15.163,9.061-28.202,22.06-34.021L226.492,4.185
			c-11.39,6.824-19.519,15.131-26.239,26.767c-10.038,17.39-12.705,37.647-7.509,57.042c5.07,18.918,17.027,34.805,33.748,44.893
			l17.515-30.334C231.003,96.736,221.941,83.699,221.941,68.534z"/>
	</g>
	<polygon fill="#0071BC" points="0,16.371 0,134.926 32.641,134.926 32.641,0 	"/>
	<g>
		<path fill="#0071BC" d="M8.322,165.778c-0.843-1.353-1.561-1.802-2.851-1.802c-1.537,0-2.726,1.102-2.726,2.576
			c0,0.727,0.347,1.327,1.041,1.803c0.595,0.4,0.595,0.4,2.851,1.399c2.678,1.176,3.744,2.503,3.744,4.604
			c0,2.878-2.281,5.128-5.255,5.128c-2.603,0-4.462-1.577-5.082-4.304l1.784-0.499c0.199,0.851,0.348,1.251,0.67,1.701
			c0.595,0.852,1.611,1.351,2.702,1.351c1.858,0,3.321-1.451,3.321-3.276c0-1.026-0.446-1.803-1.363-2.378
			c-0.62-0.4-0.62-0.4-2.925-1.451c-2.379-1.076-3.346-2.275-3.346-4.104c0-2.451,1.982-4.304,4.635-4.304
			c1.859,0,3.272,0.877,4.263,2.604L8.322,165.778z"/>
		<path fill="#0071BC" d="M24.755,179.188h-1.859v-14.962h-3.99V162.5h9.865v1.726h-4.016V179.188z"/>
		<path fill="#0071BC" d="M53.533,170.856c0,4.779-3.891,8.631-8.675,8.631c-2.355,0-4.759-1.101-6.395-2.927
			c-1.389-1.576-2.131-3.553-2.131-5.804c0-4.603,3.965-8.533,8.625-8.533C49.667,162.223,53.533,166.127,53.533,170.856z
			 M38.189,170.756c0,2.051,0.719,3.753,2.107,5.079c1.265,1.199,2.95,1.9,4.586,1.9c3.768,0,6.792-3.052,6.792-6.88
			c0-3.803-3-6.88-6.743-6.88C41.239,163.976,38.189,167.053,38.189,170.756z"/>
		<path fill="#0071BC" d="M65.728,177.46h4.536v1.728h-6.396V162.5h1.859V177.46z"/>
		<path fill="#0071BC" d="M81.591,164.226v4.979h6.519v1.726h-6.519v6.53h6.692v1.728h-8.552V162.5h8.552v1.726H81.591z"/>
		<path fill="#0071BC" d="M103.105,179.188h-1.859v-14.962h-3.991V162.5h9.866v1.726h-4.016V179.188z"/>
		<path fill="#0071BC" d="M117.357,161.173l-1.067-0.725l2.38-3.328l1.661,1.126L117.357,161.173z M118.423,179.188h-1.859V162.5
			h1.859V179.188z"/>
		<path fill="#0071BC" d="M138.524,166.829c-0.966-0.776-1.834-1.127-2.826-1.127c-1.041,0-1.833,0.626-1.833,1.452
			c0,0.299,0.148,0.624,0.396,0.824c0.471,0.4,0.644,0.477,2.578,1.052c2.875,0.851,4.064,2.202,4.064,4.679
			c0,1.899-0.57,3.352-1.686,4.328c-1.189,1.026-2.875,1.576-4.784,1.576c-1.958,0-3.966-0.651-5.726-1.877l1.834-3.503
			c1.338,1.176,2.528,1.702,3.792,1.702s2.082-0.651,2.082-1.627c0-0.9-0.57-1.325-2.578-1.927c-1.834-0.549-2.554-0.85-3.148-1.352
			c-0.868-0.724-1.314-1.825-1.314-3.301c0-3.353,2.28-5.629,5.626-5.629c1.735,0,3.569,0.477,5.23,1.349L138.524,166.829z"/>
		<path fill="#0071BC" d="M157.213,179.188h-4.288v-13.011h-3.495V162.5h11.353v3.677h-3.569V179.188z"/>
		<path fill="#0071BC" d="M173.201,176.285l-1.141,2.903h-4.536l6.346-16.688h4.686l6.221,16.688h-4.586l-1.065-2.903H173.201z
			 M176.2,167.653l-1.81,5.33h3.569L176.2,167.653z"/>
		<path fill="#0071BC" d="M199.301,179.188h-4.289v-13.011h-3.494V162.5h11.352v3.677h-3.568V179.188z"/>
		<path fill="#0071BC" d="M216.403,179.188h-4.288V162.5h4.288V179.188z"/>
		<path fill="#0071BC" d="M236.256,166.829c-0.967-0.776-1.834-1.127-2.825-1.127c-1.041,0-1.835,0.626-1.835,1.452
			c0,0.299,0.149,0.624,0.396,0.824c0.472,0.4,0.645,0.477,2.578,1.052c2.875,0.851,4.065,2.202,4.065,4.679
			c0,1.899-0.569,3.352-1.685,4.328c-1.191,1.026-2.877,1.576-4.785,1.576c-1.957,0-3.965-0.651-5.726-1.877l1.835-3.503
			c1.338,1.176,2.527,1.702,3.791,1.702c1.265,0,2.083-0.651,2.083-1.627c0-0.9-0.57-1.325-2.578-1.927
			c-1.834-0.549-2.553-0.85-3.147-1.352c-0.867-0.724-1.314-1.825-1.314-3.301c0-3.353,2.281-5.629,5.627-5.629
			c1.735,0,3.569,0.477,5.23,1.349L236.256,166.829z"/>
		<path fill="#0071BC" d="M254.946,179.188h-4.287v-13.011h-3.497V162.5h11.354v3.677h-3.569V179.188z"/>
		<path fill="#0071BC" d="M272.048,179.188h-4.288V162.5h4.288V179.188z"/>
		<path fill="#0071BC" d="M292.348,162.5h5.305l-6.543,7.905l7.162,8.782h-5.575l-5.578-7.23v7.23h-4.289V162.5h4.289v6.88
			L292.348,162.5z"/>
		<path fill="#0071BC" d="M306.153,162.5h5.132l3.122,4.553l3-4.553h5.205l-6.196,8.681v8.007h-4.288v-8.007L306.153,162.5z"/>
	</g>
</g>
</svg>
