<?xml version="1.0" encoding="utf-8"?>
<!-- Generator: Adobe Illustrator 16.0.0, SVG Export Plug-In . SVG Version: 6.00 Build 0)  -->
<!DOCTYPE svg PUBLIC "-//W3C//DTD SVG 1.1//EN" "http://www.w3.org/Graphics/SVG/1.1/DTD/svg11.dtd">
<svg version="1.1" id="Vrstva_1" xmlns="http://www.w3.org/2000/svg" xmlns:xlink="http://www.w3.org/1999/xlink" x="0px" y="0px"
	 width="419.5px" height="419.572px" viewBox="0 87.875 419.5 419.572" enable-background="new 0 87.875 419.5 419.572"
	 xml:space="preserve">
<path fill="#77787B" d="M413.794,450.622l-81.693-81.694c-3.688-3.688-8.686-5.735-13.93-5.735h-13.355
	c22.615-28.925,36.053-65.307,36.053-104.883c0-94.148-76.286-170.435-170.435-170.435S0,164.161,0,258.309
	s76.286,170.435,170.434,170.435c39.577,0,75.958-13.438,104.883-36.054v13.355c0,5.244,2.048,10.243,5.735,13.93l81.693,81.694
	c7.703,7.702,20.158,7.702,27.777,0l23.189-23.188C421.416,470.779,421.416,458.324,413.794,450.622z M170.434,363.192
	c-57.931,0-104.882-46.87-104.882-104.883c0-57.932,46.869-104.883,104.882-104.883c57.931,0,104.883,46.869,104.883,104.883
	C275.317,316.24,228.447,363.192,170.434,363.192z"/>
</svg>
