<?xml version="1.0" encoding="utf-8"?>
<!-- Generator: Adobe Illustrator 16.0.0, SVG Export Plug-In . SVG Version: 6.00 Build 0)  -->
<!DOCTYPE svg PUBLIC "-//W3C//DTD SVG 1.1//EN" "http://www.w3.org/Graphics/SVG/1.1/DTD/svg11.dtd">
<svg version="1.1" id="Vrstva_1" xmlns="http://www.w3.org/2000/svg" xmlns:xlink="http://www.w3.org/1999/xlink" x="0px" y="0px"
	 width="409.255px" height="409.256px" viewBox="5.138 93.012 409.255 409.256"
	 enable-background="new 5.138 93.012 409.255 409.256" xml:space="preserve">
<path fill="#FFFFFF" d="M287.337,297.64l116.348-116.348c14.277-14.277,14.277-37.426,0-51.715l-25.857-25.857
	c-14.277-14.277-37.426-14.277-51.715,0L209.765,220.068L93.418,103.72c-14.277-14.277-37.426-14.277-51.715,0l-25.857,25.857
	c-14.277,14.277-14.277,37.426,0,51.715L132.193,297.64L15.846,413.987c-14.277,14.278-14.277,37.427,0,51.716l25.857,25.857
	c14.277,14.277,37.438,14.277,51.715,0l116.347-116.348L326.113,491.56c14.277,14.277,37.438,14.277,51.715,0l25.857-25.857
	c14.277-14.278,14.277-37.427,0-51.716L287.337,297.64z"/>
</svg>
