<?xml version="1.0" encoding="utf-8"?>
<!-- Generator: Adobe Illustrator 16.0.0, SVG Export Plug-In . SVG Version: 6.00 Build 0)  -->
<!DOCTYPE svg PUBLIC "-//W3C//DTD SVG 1.1//EN" "http://www.w3.org/Graphics/SVG/1.1/DTD/svg11.dtd">
<svg version="1.1" id="Vrstva_1" xmlns="http://www.w3.org/2000/svg" xmlns:xlink="http://www.w3.org/1999/xlink" x="0px" y="0px"
	 width="419.529px" height="340.735px" viewBox="0 127.273 419.529 340.735" enable-background="new 0 127.273 419.529 340.735"
	 xml:space="preserve">
<path fill="#77787B" d="M376.406,212.19c0.266,3.727,0.266,7.454,0.266,11.181c0,113.667-86.514,244.638-244.637,244.638
	C83.32,468.009,38.066,453.899,0,429.41c6.921,0.798,13.576,1.064,20.764,1.064c40.195,0,77.197-13.576,106.746-36.735
	c-37.8-0.799-69.478-25.556-80.393-59.629c5.325,0.798,10.648,1.33,16.239,1.33c7.72,0,15.44-1.064,22.627-2.928
	c-39.397-7.986-68.946-42.592-68.946-84.385v-1.064c11.446,6.389,24.757,10.382,38.865,10.913
	c-23.16-15.439-38.332-41.793-38.332-71.607c0-15.972,4.258-30.612,11.712-43.391c42.326,52.175,105.948,86.248,177.288,89.976
	c-1.331-6.389-2.129-13.043-2.129-19.698c0-47.384,38.333-85.982,85.982-85.982c24.757,0,47.116,10.382,62.823,27.152
	c19.432-3.727,38.066-10.914,54.57-20.764c-6.389,19.966-19.965,36.736-37.801,47.384c17.305-1.863,34.074-6.655,49.514-13.31
	C407.818,184.772,393.175,199.944,376.406,212.19L376.406,212.19z"/>
</svg>
